<svg xmlns="http://www.w3.org/2000/svg" viewBox="0 0 420 320" width="420" height="320">
  <!-- Background -->
  <rect width="420" height="320" fill="#ffffff"/>
  
  <!-- Title -->
  <text x="210" y="25" text-anchor="middle" font-family="Arial, sans-serif" font-size="14" font-weight="bold" fill="#333">High Price Gapping Play</text>
  
  <!-- HIGH PRICE GAPPING PLAY PATTERN -->
  
  <!-- First white candle (large bullish - initiates uptrend) -->
  <line x1="60" y1="140" x2="60" y2="280" stroke="#666" stroke-width="2"/>
  <rect x="40" y="150" width="40" height="120" fill="#ffffff" stroke="#666" stroke-width="2"/>
  
  <!-- Consolidation zone candles (small, sideways) -->
  
  <!-- Consolidation candle 1 (small black) -->
  <line x1="120" y1="140" x2="120" y2="175" stroke="#333" stroke-width="2"/>
  <rect x="105" y="145" width="30" height="20" fill="#333" stroke="#333" stroke-width="2"/>
  
  <!-- Consolidation candle 2 (small white doji-like) -->
  <line x1="170" y1="135" x2="170" y2="175" stroke="#666" stroke-width="2"/>
  <rect x="155" y="148" width="30" height="12" fill="#ffffff" stroke="#666" stroke-width="2"/>
  
  <!-- Consolidation candle 3 (small black) -->
  <line x1="220" y1="138" x2="220" y2="178" stroke="#333" stroke-width="2"/>
  <rect x="205" y="143" width="30" height="25" fill="#333" stroke="#333" stroke-width="2"/>
  
  <!-- Consolidation candle 4 (small white) -->
  <line x1="270" y1="132" x2="270" y2="172" stroke="#666" stroke-width="2"/>
  <rect x="255" y="140" width="30" height="22" fill="#ffffff" stroke="#666" stroke-width="2"/>
  
  <!-- Gap-up breakout candle (large white) -->
  <line x1="340" y1="45" x2="340" y2="115" stroke="#666" stroke-width="2"/>
  <rect x="320" y="50" width="40" height="60" fill="#ffffff" stroke="#666" stroke-width="2"/>
  
  <!-- Gap visualization -->
  <rect x="295" y="115" width="85" height="17" fill="#e3f2fd" stroke="#2196F3" stroke-width="1" stroke-dasharray="3,2"/>
  <text x="337" y="127" text-anchor="middle" font-family="Arial, sans-serif" font-size="8" fill="#2196F3">GAP</text>
  
  <!-- Consolidation zone bracket -->
  <line x1="100" y1="185" x2="285" y2="185" stroke="#888" stroke-width="1"/>
  <line x1="100" y1="185" x2="100" y2="190" stroke="#888" stroke-width="1"/>
  <line x1="285" y1="185" x2="285" y2="190" stroke="#888" stroke-width="1"/>
  <text x="192" y="200" text-anchor="middle" font-family="Arial, sans-serif" font-size="9" fill="#888">Stauchungszone / Konsolidierung</text>
  
  <!-- Resistance line -->
  <line x1="95" y1="132" x2="300" y2="132" stroke="#f44336" stroke-width="1" stroke-dasharray="5,3"/>
  <text x="300" y="128" font-family="Arial, sans-serif" font-size="8" fill="#f44336">Widerstand</text>
  
  <!-- Labels -->
  <text x="60" y="295" text-anchor="middle" font-family="Arial, sans-serif" font-size="9" fill="#4CAF50">Lange weiße</text>
  <text x="60" y="305" text-anchor="middle" font-family="Arial, sans-serif" font-size="9" fill="#4CAF50">Kerze</text>
  
  <text x="340" y="220" text-anchor="middle" font-family="Arial, sans-serif" font-size="9" fill="#4CAF50">Ausbruch</text>
  <text x="340" y="232" text-anchor="middle" font-family="Arial, sans-serif" font-size="9" fill="#4CAF50">mit Gap</text>
  
  <!-- Uptrend continuation arrow -->
  <path d="M 365 70 L 395 40" stroke="#4CAF50" stroke-width="2" fill="none" marker-end="url(#arrowhead-green)"/>
  <defs>
    <marker id="arrowhead-green" markerWidth="10" markerHeight="7" refX="9" refY="3.5" orient="auto">
      <polygon points="0 0, 10 3.5, 0 7" fill="#4CAF50"/>
    </marker>
  </defs>
  
  <!-- Formation type label -->
  <text x="210" y="310" text-anchor="middle" font-family="Arial, sans-serif" font-size="10" fill="#2196F3">Bullische Fortsetzungsformation</text>
</svg>
