<svg xmlns="http://www.w3.org/2000/svg" viewBox="0 0 400 300" width="400" height="300">
  <!-- Background -->
  <rect width="400" height="300" fill="#ffffff"/>
  
  <!-- Title -->
  <text x="200" y="25" text-anchor="middle" font-family="Arial, sans-serif" font-size="14" font-weight="bold" fill="#333">Three Black Crows Pattern</text>
  
  <!-- First candle (white/bullish - before pattern) -->
  <!-- Wick -->
  <line x1="80" y1="60" x2="80" y2="180" stroke="#666" stroke-width="2"/>
  <!-- Body -->
  <rect x="60" y="80" width="40" height="80" fill="#ffffff" stroke="#666" stroke-width="2"/>
  
  <!-- Second candle (white/bullish - before pattern) -->
  <!-- Wick -->
  <line x1="140" y1="50" x2="140" y2="160" stroke="#666" stroke-width="2"/>
  <!-- Body -->
  <rect x="120" y="70" width="40" height="70" fill="#ffffff" stroke="#666" stroke-width="2"/>
  
  <!-- THREE BLACK CROWS -->
  
  <!-- First black crow -->
  <!-- Wick -->
  <line x1="200" y1="65" x2="200" y2="185" stroke="#333" stroke-width="2"/>
  <!-- Body (black/bearish) -->
  <rect x="180" y="70" width="40" height="110" fill="#333" stroke="#333" stroke-width="2"/>
  
  <!-- Second black crow -->
  <!-- Wick -->
  <line x1="260" y1="110" x2="260" y2="230" stroke="#333" stroke-width="2"/>
  <!-- Body (black/bearish) -->
  <rect x="240" y="115" width="40" height="110" fill="#333" stroke="#333" stroke-width="2"/>
  
  <!-- Third black crow -->
  <!-- Wick -->
  <line x1="320" y1="155" x2="320" y2="275" stroke="#333" stroke-width="2"/>
  <!-- Body (black/bearish) -->
  <rect x="300" y="160" width="40" height="110" fill="#333" stroke="#333" stroke-width="2"/>
  
  <!-- Labels -->
  <text x="200" y="290" text-anchor="middle" font-family="Arial, sans-serif" font-size="10" fill="#666">1. Kr채he</text>
  <text x="260" y="290" text-anchor="middle" font-family="Arial, sans-serif" font-size="10" fill="#666">2. Kr채he</text>
  <text x="320" y="290" text-anchor="middle" font-family="Arial, sans-serif" font-size="10" fill="#666">3. Kr채he</text>
  
  <!-- Trend arrow -->
  <path d="M 50 200 Q 100 180 150 100" stroke="#4CAF50" stroke-width="2" fill="none" stroke-dasharray="5,3"/>
  <text x="45" y="220" font-family="Arial, sans-serif" font-size="9" fill="#4CAF50">Aufw채rts-</text>
  <text x="45" y="232" font-family="Arial, sans-serif" font-size="9" fill="#4CAF50">trend</text>
  
  <!-- Downtrend indication -->
  <path d="M 350 170 L 380 250" stroke="#f44336" stroke-width="2" fill="none" marker-end="url(#arrowhead)"/>
  <defs>
    <marker id="arrowhead" markerWidth="10" markerHeight="7" refX="9" refY="3.5" orient="auto">
      <polygon points="0 0, 10 3.5, 0 7" fill="#f44336"/>
    </marker>
  </defs>
  <text x="365" y="265" font-family="Arial, sans-serif" font-size="9" fill="#f44336">Bearish</text>
</svg>
